<svg xmlns="http://www.w3.org/2000/svg" width="100" height="100" viewBox="0 0 100 100" fill="none">
    <rect width="100" height="100" rx="50" fill="#F7F8FC"/>
    <path d="M48.9239 47.189C51.1141 49.3798 52.4598 52.2741 52.7233 55.3608C52.9868 58.4475 52.1511 61.528 50.3639 64.0583L49.9879 64.565L61.2332 75.813L61.4332 76.045C61.7263 76.442 61.8673 76.9311 61.8304 77.4232C61.7936 77.9153 61.5814 78.3779 61.2324 78.7269C60.8834 79.0759 60.4209 79.288 59.9287 79.3249C59.4366 79.3617 58.9476 79.2208 58.5505 78.9277L58.3185 78.7277L46.9665 67.3783C44.2575 69.1892 40.9721 69.9288 37.7484 69.4534C34.5247 68.9781 31.5926 67.3217 29.5215 64.806C27.4504 62.2902 26.3881 59.0946 26.5408 55.8396C26.6935 52.5846 28.0504 49.5025 30.3479 47.1917C32.8113 44.7285 36.1523 43.3448 39.6359 43.3448C43.1195 43.3448 46.4604 44.7285 48.9239 47.1917V47.189ZM53.5105 23.333C55.1009 23.3337 56.626 23.9658 57.7505 25.0903L65.2492 32.5837L72.7372 40.0823C73.8599 41.2077 74.4919 42.733 74.4919 44.3223V70.6663C74.4919 72.2576 73.8597 73.7838 72.7345 74.909C71.6093 76.0342 70.0832 76.6663 68.4919 76.6663H64.4652C64.3633 75.8643 64.0566 75.102 63.5745 74.453L63.2545 74.0717L61.8492 72.6637L68.4892 72.6663C69.0196 72.6663 69.5283 72.4556 69.9034 72.0806C70.2785 71.7055 70.4892 71.1968 70.4892 70.6663V44.6743H59.1665C57.6466 44.6746 56.1833 44.098 55.0721 43.061C53.9608 42.024 53.2846 40.604 53.1799 39.0877L53.1665 38.677V27.333H37.8332C37.3028 27.333 36.7941 27.5437 36.419 27.9188C36.0439 28.2939 35.8332 28.8026 35.8332 29.333V41.1223C34.4343 41.4542 33.0875 41.9764 31.8305 42.6743L31.8332 29.333C31.8332 27.7417 32.4653 26.2156 33.5906 25.0904C34.7158 23.9651 36.2419 23.333 37.8332 23.333H53.5105ZM33.2625 50.1063C32.405 50.9387 31.7215 51.9332 31.2518 53.0321C30.7821 54.131 30.5357 55.3124 30.5268 56.5074C30.518 57.7024 30.7468 58.8873 31.2001 59.9931C31.6534 61.0988 32.3221 62.1034 33.1672 62.9484C34.0123 63.7933 35.017 64.4618 36.1229 64.9148C37.2288 65.3679 38.4137 65.5965 39.6087 65.5874C40.8038 65.5783 41.985 65.3316 43.0839 64.8617C44.1827 64.3918 45.1771 63.7081 46.0092 62.8503C47.6878 61.1576 48.6275 58.8688 48.6225 56.4848C48.6175 54.1009 47.6683 51.816 45.9826 50.1303C44.2969 48.4446 42.012 47.4953 39.6281 47.4904C37.2441 47.4854 34.9553 48.425 33.2625 50.1037V50.1063ZM57.1665 30.1597V38.677C57.1665 39.6903 57.9185 40.525 58.8945 40.6583L59.1665 40.677L67.6759 40.6743L57.1665 30.1597Z" fill="#A9A9B8"/>
</svg>